/* XPM */
static char * mail_xpm[] = {
"20 16 2 1",
" 	g #FFFFFF",
".	g #000000",
"                    ",
" .................. ",
" ..              .. ",
" . .            . . ",
" .  .          .  . ",
" .   .        .   . ",
" .    .      .    . ",
" .     .   ..     . ",
" .    . . . .     . ",
" .   .   ..  .    . ",
" .  .         .   . ",
" . .           .  . ",
" ..             ... ",
" .................. ",
"                    ",
"                    "};
