/* XPM */
static char * mini_box_logo_xpm[] = {
"20 16 2 1",
" 	g #FFFFFF",
".	g #000000",
"    ..    ..........",
"    ..    ..........",
"....................",
"  ..    .    ..    .",
"  ..                ",
"  ..                ",
"  ..     .    ..    ",
"....    ..    ..    ",
"....    ..    ..    ",
"  ..    ..    ..    ",
"  ..    ..    ..    ",
"  ..    ..    ..    ",
"  ..    ..    ..    ",
"....................",
"    .    ...........",
"    .    ..........."};
