/* XPM */
static char * minibox_lcd_xpm[] = {
"100 17 2 1",
" 	g #FFFFFF",
".	g #000000",
"                                                                                                    ",
"                                                                                                    ",
"                ..           ..         ..                                                          ",
"                                        ..                                                          ",
"                                        .                                                           ",
"   ..........  ... ......   ...        ......     ....   ..  ..         .....    ....  ..........   ",
"   ..  ...  ..  .  ...  ..   .         ..  ...  ..   ..  .. ...        ..      ..   .. ..  ...  ..  ",
"   ..  ..   ..  .  ..   ..   .         ..   ..  ..   ..   ....         ..      ..   .. ..  ..   ..  ",
"   ..  ..   .. ..  ..   ..  ..  ....   ..   .. ..    ..   ...         ..      ..    .. ..  ..   ..  ",
"   .   ..   .. ..  ..   ..  ..         .    .. ..    ..   ...         ..      ..    .. .   ..   ..  ",
"  ..   ..  ..  ..  .   ..   ..        ..    .  ..   ..   ....         ..      ..   .. ..   ..  ..   ",
"  ..   ..  ..  .. ..   ..   ..        ..   ..  ..   ..  ..  ..        ...  .  ..   .. ..   ..  ..   ",
"  ..   .   ..  .. ..   ..   ..        .....     ....   ...  ...  ..    .....   ....   ..   .   ..   ",
"                                                                                                    ",
"                                                                                                    ",
"                                                                                                    ",
"                                                                                                    "};
